<svg id="visual" viewBox="0 0 900 600" width="900" height="600" xmlns="http://www.w3.org/2000/svg" xmlns:xlink="http://www.w3.org/1999/xlink" version="1.1"><rect x="0" y="0" width="900" height="600" fill="#e1e3dd"></rect><path d="M0 491L25 494.5C50 498 100 505 150 504.3C200 503.7 250 495.3 300 495.2C350 495 400 503 450 506.2C500 509.3 550 507.7 600 504.2C650 500.7 700 495.3 750 493.3C800 491.3 850 492.7 875 493.3L900 494L900 601L875 601C850 601 800 601 750 601C700 601 650 601 600 601C550 601 500 601 450 601C400 601 350 601 300 601C250 601 200 601 150 601C100 601 50 601 25 601L0 601Z" fill="#41503b" stroke-linecap="round" stroke-linejoin="miter"></path></svg>