<svg id="visual" viewBox="0 0 900 600" width="900" height="600" xmlns="http://www.w3.org/2000/svg" xmlns:xlink="http://www.w3.org/1999/xlink" version="1.1"><rect x="0" y="0" width="900" height="600" fill="#e1e3dd"></rect><path d="M0 449L21.5 453.8C43 458.7 86 468.3 128.8 472.5C171.7 476.7 214.3 475.3 257.2 469.7C300 464 343 454 385.8 448.2C428.7 442.3 471.3 440.7 514.2 445.7C557 450.7 600 462.3 642.8 467.7C685.7 473 728.3 472 771.2 463.7C814 455.3 857 439.7 878.5 431.8L900 424L900 601L878.5 601C857 601 814 601 771.2 601C728.3 601 685.7 601 642.8 601C600 601 557 601 514.2 601C471.3 601 428.7 601 385.8 601C343 601 300 601 257.2 601C214.3 601 171.7 601 128.8 601C86 601 43 601 21.5 601L0 601Z" fill="#172830" stroke-linecap="round" stroke-linejoin="miter"></path></svg>