<?xml version="1.0" encoding="UTF-8"?>
<svg viewBox="0 0 829.21875 207.08464" xmlns="http://www.w3.org/2000/svg">
 <g transform="translate(97.493 -864.58)" fill-rule="evenodd" stroke="#000">
  <path d="m-97.261 946.12c2.6878-0.32916 10.586-1.8367 22.229-3.9669 6.176-1.13 14.393-2.6217 22.806-3.9619 6.6852-1.0649 15.071-2.4402 23.063-3.4464 6.9208-0.87136 15.502-2.0407 23.334-2.7022 7.0643-0.59674 15.847-1.4432 23.594-1.7159 7.1575-0.25196 16.123-0.63392 23.804-0.46593 7.2107 0.15771 16.308 0.39467 23.913 1.0533 7.2226 0.62548 16.595 1.546 24.088 2.8059 7.178 1.2069 16.243 2.9826 23.593 4.802 7.0878 1.7545 16.362 4.4544 23.477 6.977 6.8999 2.4462 15.375 5.7944 22.257 8.8537 6.7042 2.9802 15.07 7.133 21.627 10.806 6.413 3.5923 13.771 8.0491 20.087 12.1 6.1975 3.9746 13.204 8.9514 19.246 13.379 5.9476 4.3582 12.519 9.6014 18.3 14.349 5.7061 4.6854 10.946 9.5817 16.805 14.218 5.7966 4.5873 8.5068 6.1873 15.419 9.0002 6.855 2.7896 11.059 4.0837 18.401 5.3742 7.2972 1.2827 12.47 1.7544 19.916 1.8004 7.4169 0.046 13.553-0.38 20.957-1.0954 7.39-0.7141 13.705-1.8872 21.012-3.2453s13.826-3.0065 21.018-4.8488c7.2071-1.846 13.865-3.8269 20.948-6.0289 7.1118-2.2112 13.838-4.3959 20.813-6.8946 7.0189-2.5142 13.894-4.9717 20.816-7.5908 6.9812-2.6413 13.826-5.3008 20.705-8.0095 6.9535-2.738 13.758-5.5458 20.596-8.3343 6.9288-2.8258 13.801-5.62 20.62-8.4282l20.611-8.4887c6.9398-2.8585 13.855-5.644 20.673-8.3951 6.9728-2.8136 13.948-5.5184 20.822-8.0885 7.0574-2.6388 14.063-5.1764 20.973-7.5986 7.1278-2.4985 14.199-4.7801 21.208-6.8338 7.27-2.1302 14.403-3.9703 21.51-5.5521 7.4221-1.6521 14.499-2.8628 21.724-3.4902 7.6112-0.66089 14.493-0.8013 21.667-0.0423 7.6468 0.80892 13.86 2.8593 20.568 5.3745 7.2669 2.7247 13.459 5.4635 19.691 8.8452 6.92 3.7546 11.47 7.2492 16.305 12.277 5.5987 5.8217 7.3486 9.3829 8.729 16.004 1.7494 8.3908 0.51945 11.686-1.7638 17.503-5.2525 13.381-9.8734 16.358-9.8734 16.358s4.1018-3.1499 8.4097-16.847c1.8727-5.9542 2.5651-7.9892 0.24085-16.229-1.8342-6.5024-2.9307-7.9963-8.913-13.409-5.1662-4.6745-8.6435-6.817-15.799-10.078-6.4452-2.9373-11.935-4.8439-19.365-7.0545-6.8591-2.0406-11.054-3.2013-18.73-3.4761-7.202-0.25788-12.138 0.31588-19.676 1.5036-7.1553 1.1273-12.625 2.5332-19.906 4.6958-6.9717 2.0707-13.121 4.1456-20.217 6.7745-6.8414 2.5345-13.012 5.0288-19.941 8.0152-6.7172 2.8952-13.211 5.7802-20.06 8.9019-6.6703 3.0403-13.014 6.0311-19.766 9.3214-6.602 3.2172-13.169 6.4136-19.885 9.7468l-19.946 9.8993c-6.599 3.275-13.317 6.5722-20.024 9.8728-6.6186 3.2571-13.469 6.6596-20.206 9.875-6.6655 3.181-13.61 6.4559-20.382 9.5773-6.7151 3.0953-13.827 6.2214-20.645 9.2193-6.7759 2.9795-14.448 6.0967-21.38 8.7997-6.9036 2.6919-14.847 5.661-21.9 8.0074-7.038 2.3416-15.475 5.0598-22.661 6.9277s-16.271 4.1099-23.586 5.3423c-7.3288 1.2349-16.984 2.5281-24.379 3.0058-7.4246 0.4798-18.747 0.2922-26.11-0.4703-7.4083-0.7672-19.615-3.3903-26.645-5.6853-7.0879-2.314-19.111-8.3169-25.361-12.252-6.3168-3.9777-13.058-9.6118-19.078-13.876-6.0994-4.3206-11.026-7.7741-17.264-11.694-6.3377-3.9829-11.257-7.0592-17.717-10.578-6.5836-3.5864-11.756-6.2769-18.405-9.3985-6.7986-3.1922-11.336-5.0863-18.231-7.5758-7.079-2.5557-12.093-4.1624-19.146-6.1041-7.2741-2.0025-11.814-2.9928-19.005-4.2298-7.4575-1.2828-12.637-1.9161-19.879-2.5984-7.5614-0.71253-12.622-0.7717-19.866-0.86875-7.63-0.10216-13.101 0.2113-20.3 0.58294-7.6694 0.39597-13.294 1.128-20.41 1.9083-7.7037 0.84474-13.488 1.9073-20.486 3.03-7.761 1.2452-13.712 2.5603-20.546 3.954-7.8971 1.6108-14.022 3.1167-20.603 4.698-8.2992 1.9943-14.608 3.6512-20.666 5.2823-11.797 3.1763-18.826 5.1835-21.101 5.7706-1.0133-3.9277-1.9552-7.5148-2.834-10.814-1.0618-3.9862-2.0316-7.5522-2.9241-10.79-1.1132-4.0392-2.1064-7.5688-3.008-10.769-1.1233-3.9863-2.1046-7.4606-2.9994-10.771-0.98901-3.6581-1.8724-7.1155-2.7252-10.842-0.76145-3.3267-1.4985-6.8677-2.2645-10.957" stroke-width=".46351"/>
  <path d="m127.51053,988.40889c.34045-.22463 1.21331-.59215 2.53606-1.07956 .70168-.25856 2.07011-.59552 3.00752-.9259 .7448-.26248 2.08091-.58951 2.95865-.89706 .76011-.26633 2.06878-.59122 2.91853-.8912 .76651-.27062 2.04949-.59642 2.88166-.89434 .76888-.27525 2.02699-.60347 2.84618-.90189 .76907-.28025 2.00277-.6118 2.81142-.91221 .76789-.28531 1.55491-.57665 2.35946-.87355 .7706-.28436 1.96506-.63667 2.76146-.93709 .76801-.2897 1.93794-.6463 2.72674-.9506 .76488-.29509 1.91029-.65599 2.69185-.96447 .76135-.30049 1.88214-.66585 2.6567-.97862 .75745-.30585 1.85364-.67567 2.62128-.99282 .75328-.31121 1.82475-.68545 2.58556-1.00703 .74881-.31653 1.79556-.69521 2.54954-1.02119 .74414-.32177 1.90023-.7352 2.64439-1.06833l2.21987-.99281c.7372-.32936 1.94742-.77628 2.67775-1.11804s1.88698-.76375 2.6039-1.11472l2.14593-1.04962c.71489-.3494 1.79064-.78122 2.49325-1.14007l2.10736-1.07552c.70348-.35879 1.69451-.79774 2.38257-1.16409l2.06791-1.10029c.69177-.36784 1.59895-.81332 2.2722-1.18667 .67895-.3765 1.54485-.80407 2.20365-1.18469l1.98648-1.14705c.66696-.38488 1.45177-.81922 2.09528-1.20576 .65388-.39276 1.40109-.81235 2.02979-1.20507l1.90337-1.18835c.64211-.40069 1.31097-.82732 1.9238-1.22466 .62924-.40798 1.26352-.82282 1.86121-1.22511 .61649-.41502 1.21741-.8201 1.79978-1.2268 .60409-.42183 1.17257-.81908 1.73951-1.22949l1.73614-1.25623c.59515-.43041 1.09013-.83626 1.63874-1.24735 .58477-.43806 1.04886-.8385 1.58055-1.25085 .57595-.44669.91429-.79361 1.41489-1.20926 .55578-.4615.96813-.84407 1.44836-1.25612 .55609-.47712.93734-.86103 1.39143-1.2634 .57548-.50981.85981-.87129 1.26417-1.24634 .93016-.86278.87075-1.09328.87075-1.09328s-.2315.0136-1.69104.48191c-.6345.20352-1.13144.32952-2.00793.59669-.6917.21078-1.26013.3488-2.08989.59224-.71657.21021-1.27338.3285-2.08566.55732-.73161.20609-1.01875.20636-1.82572.414-.74495.19168-1.24027.28504-2.04247.48135-.75265.18418-1.2245.26402-2.02381.44929l-2.33197.54067c-.76166.17662-1.2126.21491-2.00697.38859-.76584.16746-1.18636.19511-1.9798.35782-.76922.15769-1.15669.17721-1.94916.32862-.77181.14746-1.12401.16163-1.91528.30146l-2.34573.41467c-.77491.13705-1.08973.11425-1.87819.24206-.77594.12579-1.05056.10308-1.83718.21873l-2.3432.34454c-.77715.11436-1.00678.0585-1.79006.16155s-.96316.0534-1.74355.14362l-2.33299.2698c-.77632.0899-.91192.0133-1.68788.0904l-2.32462.23105c-.77511.0771-.85671-.0244-1.62757.0392l-2.31402.19134c-.77315.064-.79827-.0592-1.56321-.009-.76968.0504-.75181-.0488-1.51083-.0126l-2.2857.10904c-.76629.0366-.90412-.0397-1.65702-.0139-.7629.0261-1.08953-.0213-1.83828-.003-.76076.0191-1.07166-.0337-1.81598-.022-.75851.012-1.05369-.0456-1.79322-.0409-.75625.005-1.03583-.057-1.77023-.0592-.75395-.002-1.0181-.0677-1.74698-.0769-.75172-.009-1.00071-.0778-1.72362-.0939-.74965-.0166-.98379-.0871-1.70014-.11003l-2.19312-.0692c-.75159-.0235-.95755-.11729-1.66318-.14597-.75172-.0306-.94331-.12504-1.63955-.1599-.75376-.0377-.93162-.13197-1.6164-.17249-.75944-.0449-.92455-.13787-1.59394-.18312-.77363-.0523-.92728-.14264-1.57286-.19073-.81418-.0607-.9591-.14617-1.5548-.19169-1.15998-.0886-1.89713-.13018-2.1313-.11592-.83888,2.39624-1.60747,4.5873-2.31621,6.60441-.85634,2.43715-1.62533,4.6204-2.32543,6.60481-.87323,2.47528-1.6393,4.64131-2.33397,6.60515-.86545,2.44661-1.62011,4.57935-2.33315,6.60514-.78798,2.23871-1.52517,4.34683-2.30496,6.60355-.6962,2.01479-1.42631,4.14807-2.25687,6.59857" stroke-width=".37725"/>
  <path d="m379.36 910.4c-3.2248 1.1706-8.1825 4.4398-10.706 6.8109-2.5388 2.386-5.7482 6.538-7.516 9.5575-1.7828 3.0448-3.8573 7.4418-4.9235 10.796-1.0778 3.3899-2.1436 8.0001-2.5302 11.506-0.39186 3.5526-0.51053 8.1043-0.28686 11.621 0.22729 3.5732 0.88368 7.9691 1.652 11.396 0.78307 3.4926 2.1704 7.8325 3.5677 11.029 1.4291 3.2696 3.4879 7.2205 5.434 10.081 1.9981 2.9372 5.4495 6.8596 8.2281 8.8231 2.8662 2.0254 8.9662 4.4228 12.302 4.1302 3.4603-0.3036 8.6843-3.2664 11.316-5.4072 2.748-2.2358 5.2558-3.7428 8.1197-5.5031 3.0172-1.8546 5.8865-3.3084 8.8285-4.8846 3.1356-1.6799 6.5057-3.4411 9.2682-5.293 2.9925-2.006 7.7984-8.6028 7.1389-11.92-0.73216-3.6827-4.9005-8.1722-7.4057-10.244-2.9009-2.3991-5.7962-4.6336-8.3383-6.4849-3.2214-2.346-6.5568-4.3152-9.1031-5.6843-5.8575-3.1494-10.345-4.0118-10.345-4.0118s4.4069 1.0174 10.128 4.44c2.487 1.4879 5.672 3.5501 8.792 6.0464 2.462 1.9699 5.2227 4.29 8.0197 6.8246 2.4155 2.1888 5.8858 5.7702 6.459 9.4865 0.51628 3.3472-3.5065 7.6809-6.585 9.5462-2.8418 1.722-6.0812 3.1935-9.2887 4.7258-3.0094 1.4378-6.1008 2.8553-9.1974 4.5679-2.9393 1.6255-5.9004 3.2478-8.7446 5.3539-2.7232 2.0166-5.9159 3.9963-9.3884 4.1372-3.3478 0.1357-6.7102-1.4856-9.383-3.7846-2.5912-2.2289-4.8216-4.848-6.6919-7.8784-1.8215-2.9515-3.2374-6.0991-4.5242-9.435-1.2582-3.2619-2.1379-6.5399-2.7691-10.068-0.61925-3.4619-0.98143-6.8049-1.0534-10.388-0.0708-3.526 0.163-6.8164 0.70923-10.349 0.53902-3.4863 1.4305-6.5643 2.6554-9.9022 1.2118-3.3022 2.7067-6.0033 4.6215-8.9627 1.8987-2.9346 3.716-5.1508 6.3578-7.4157 2.6254-2.2507 4.7332-3.5962 8.0078-4.6133 3.2612-1.013 5.6731-1.3518 9.0781-1.1022 3.3981 0.24911 6.049 0.78563 9.2973 1.8668s5.983 2.2666 9.0676 3.7734c3.0907 1.5096 5.7808 3.1127 8.7219 4.8974 2.9528 1.7917 5.5762 3.5817 8.3926 5.5659 2.8337 1.9964 5.5472 3.9895 8.312 6.0447 2.7878 2.0722 5.4102 4.1712 8.1284 6.2858 2.7472 2.1372 5.1541 3.6817 7.5966 6.128 2.4748 2.4785 3.3198 3.1904 4.4204 6.5245 1.1182 3.3874 0.77068 3.4286-0.31914 6.7607-1.1106 3.3957-2.0608 4.7916-4.0922 7.5975-2.0772 2.869-3.9259 5.0176-6.2343 7.571-2.3696 2.6212-4.5943 4.7643-7.0411 7.1626-2.5233 2.4732-4.9213 4.5611-7.4602 6.839-2.6327 2.3623-5.0975 4.555-7.6759 6.7671l-7.8908 6.7697-7.9121 6.7774c-1.6 1.3705-3.0964 2.6363-4.634 3.9455 4.891 2.5215 10.517 5.5315 16.221 8.7121 2.3202-2.1881 4.6918-4.4149 7.1391-6.7233l7.5927-7.1618c2.4754-2.3353 5.0956-4.8837 7.6191-7.3711 2.4334-2.3986 5.1988-5.0997 7.6083-7.692 2.3363-2.5137 5.031-5.4411 7.2807-8.1734 2.1914-2.6614 4.8718-6.1658 6.8188-9.131 1.9039-2.8997 4.5906-8.4265 5.5492-11.871 0.9406-3.3798 0.78481-12.337-0.48144-15.666-1.2462-3.2762-5.6331-9.0204-8.2134-11.377-2.5466-2.3256-6.2348-4.7422-9.0719-6.7449-2.807-1.9814-5.7379-4.0753-8.6125-6.0112-2.8508-1.9199-5.8866-3.9342-8.8035-5.7924-2.899-1.8468-6.218-3.8848-9.2447-5.5332-3.0145-1.6418-6.6083-3.4874-9.7601-4.8477s-7.1599-2.8243-10.45-3.7492c-3.2902-0.92513-8.1851-1.677-11.588-1.7645-3.4104-0.0879-8.9719 0.90693-12.183 2.0727z" stroke-width=".21552"/>
  <path d="m500.73231,1002.9245c.0407-.2084.23223-.6687.55142-1.3419 .16936-.3569.5695-.9939.80197-1.4655 .18478-.37474.57629-.99594.79475-1.43698 .18919-.38191.57075-.99206.78129-1.41968 .18996-.38585.56099-.98653.76546-1.40694 .18894-.38828.5491-.98044.74823-1.39606 .18689-.39027.53604-.97433.73021-1.38664l.56768-1.20195c.1858-.3923.51074-.96886.70008-1.3765 .18253-.39316.49595-.96203.68067-1.36826 .17905-.39386.48103-.95499.66105-1.35985 .17542-.3945.46583-.94783.64132-1.35165 .17163-.3949.45045-.94052.6214-1.34326s.43495-.93303.60128-1.33476c.16379-.39541.41933-.92547.58117-1.32615s.44396-.97932.59897-1.37875c.15328-.39533.30756-.79264.46272-1.19142 .15375-.39559.44547-1.01164.59138-1.40901 .14498-.39486.42679-.98432.56354-1.37985l.40976-1.18359c.13661-.39419.38142-.95409.50929-1.34692l.38369-1.1782c.12818-.39319.33655-.92357.45544-1.31367l.35776-1.172c.11976-.39196.29225-.89296.40239-1.27987s.27475-.86918.37616-1.25324l.30606-1.15777c.10286-.38858.23162-.83934.32447-1.21972 .0944-.38645.21446-.81771.29896-1.19472l.25587-1.14095c.0865-.38485.17259-.78901.24888-1.16153 .0783-.38261.15571-.76945.22391-1.13802 .0703-.38025.13861-.75108.19891-1.11543 .0626-.37787.12132-.73369.17406-1.09349 .0549-.37582.10883-.74338.16142-1.10186 .0555-.37752.0815-.70863.12664-1.06171 .0482-.37643.0644-.69375.10227-1.04099 .041-.37614.0299-.62698.0542-.96358 .0268-.37378.03-.66528.0477-.99286 .0205-.37944.0108-.65967.0222-.97398 .0145-.39822-.0241-.63382-.0209-.9197 .007-.65747-.11251-.71666-.11251-.71666s-.0858.0924-.46705.81045c-.16582.31211-.30958.54467-.54441.97086-.1854.3363-.35242.60018-.5787,1.00034-.19541.34553-.36607.59807-.59155.98641-.20308.34973-.31647.45836-.54873.83723-.21431.34978-.3711.57013-.6062.94312-.22054.35-.37373.55674-.61224.92473l-.6959,1.07365c-.22726.35063-.38954.53476-.63098.89676-.23271.34905-.38737.51789-.63307.87568-.23815.34682-.38317.50031-.63312.85373-.24344.34421-.37678.48241-.6311.83128l-.75401,1.03417c-.24899.3417-.38296.4527-.64122.79621-.25414.33811-.37222.4339-.63483.77246l-.78223,1.00841c-.25935.33451-.37351.40157-.64002.73436-.26433.33003-.3584.38325-.62919.71042l-.80941.97806c-.26929.3254-.3549.3496-.62938.67045l-.82234.96116c-.2742.32049-.34881.31539-.62692.62957l-.83469.94315c-.27887.31511-.34031.28097-.62173.58804s-.31755.26705-.60243.56706l-.85794.90316c-.28757.30289-.37395.32795-.66076.6219-.29065.29783-.43954.4046-.72764.69445s-.43767.3934-.72697.67912-.43551.38239-.72586.66384c-.29688.28774-.43323.37158-.72439.64867-.299.28437-.43072.36108-.72266.63356-.30107.28097-.42802.35098-.72046.61873-.30323.27771-.42525.34125-.718.60413l-.89573.80509c-.30691.27596-.42748.32062-.71836.57745-.30992.27349-.42511.31246-.71482.56345-.3137.27181-.4234.30569-.71097.55036-.31897.27133-.42301.30086-.70651.53806-.32762.27409-.42612.30025-.70135.52739-.34718.28643-.44013.31105-.69463.52023-.49554.40736-.80424.67148-.8908.76516l1.84325,3.21578 1.83982,3.21949c.68877,1.20715 1.29078,2.26426 1.83647,3.22273 .67997,1.19409 1.27256,2.23508 1.83696,3.22246 .62371,1.09124 1.21292,2.11683 1.84732,3.21128 .56646.97702 1.16895,2.00902 1.86431,3.19132" stroke-width=".43359"/>
  <path d="m294.63556,1062.7829c.13726-.243.56268-.7434 1.23189-1.4609 .35499-.3806 1.10629-1.0245 1.58584-1.5241 .38101-.397 1.11525-1.0246 1.5649-1.4913 .38941-.4043 1.10694-1.0216 1.54147-1.4748 .39197-.4088 1.09286-1.0183 1.51695-1.4646 .39185-.4123 1.07604-1.0152 1.4917-1.4575 .39022-.4153 1.05772-1.0122 1.46597-1.4522 .38767-.4179.78538-.8456 1.19226-1.2822 .38971-.4183 1.02497-1.0146 1.42544-1.4506 .38618-.4205 1.00434-1.0113 1.3986-1.4472 .38229-.4226.98334-1.008 1.37152-1.444 .37814-.4247.96198-1.0046 1.34419-1.4408 .3738-.4266.94038-1.0011 1.31668-1.4376 .36924-.4284.91855-.9975 1.28896-1.4344 .3645-.43.89657-.9937 1.26104-1.431 .35971-.4315.94904-1.0512 1.30473-1.4895l1.06145-1.3069c.35265-.4337.96458-1.0907 1.30845-1.5296s.93052-1.0638 1.26266-1.5036l.99442-1.3161c.33137-.4383.86311-1.0428 1.18336-1.4825l.96077-1.3188c.32081-.4401.79616-1.0211 1.10452-1.4606l.92696-1.3205c.31015-.4417.72994-.999 1.02638-1.4378s.69879-.976.9835-1.4144l.85872-1.3214c.28838-.4436.63429-.9545.90716-1.3915 .27732-.4438.6045-.9339.86578-1.3696l.79132-1.3187c.26701-.4447.54191-.9134.79148-1.3466 .25629-.4448.51333-.8953.75154-1.3265 .24569-.4448.48497-.8787.71189-1.3075 .23539-.4448.45681-.8635.67262-1.2895l.66104-1.304c.22669-.4469.39835-.8467.60226-1.2671 .21739-.448.37132-.8346.56402-1.2502 .20874-.4502.30157-.7644.47336-1.1717 .19069-.4524.31802-.8116.47811-1.2103 .18539-.4616.29247-.8114.43935-1.1959 .1862-.4872.23957-.7923.36446-1.1445 .28729-.8101.16827-.9263.16827-.9263s-.14237.083-.9053.8343c-.33168.3264-.60322.5623-1.06632,1.005-.36549.3492-.67825.6156-1.12,1.029-.38151.3571-.69383.608-1.12963,1.0072-.39252.3595-.57499.4532-1.01487.8381-.40607.3554-.68809.5717-1.12894.9485-.41361.3535-.68547.5541-1.12837.9235l-1.2921,1.0776c-.42201.352-.69522.5214-1.13906.8823-.4279.348-.68551.5013-1.13263.8555-.43349.3433-.67296.481-1.12345.8282-.43874.3382-.65768.4613-1.11148.8013l-1.34526,1.008c-.44438.3331-.65257.4222-1.10882.7543-.44901.3267-.63162.4029-1.09099.7272l-1.36836.966c-.45381.3204-.6195.3624-1.08118.6782-.45782.3131-.59355.3452-1.05792.6525l-1.38823.9188c-.46191.3057-.57509.305-1.04129.6031l-1.39656.8932c-.46564.2979-.5533.2648-1.02098.5534l-1.40381.8665c-.469.2895-.52842.2253-.99712.5039s-.4952.2163-.96504.4849l-1.41482.8088c-.47429.2713-.58884.2713-1.05844.5318-.47586.2639-.70023.3425-1.16967.5974-.47697.2592-.69326.3294-1.16235.5788-.47803.2543-.68603.3166-1.15454.5603-.4791.2493-.67866.304-1.14637.5421-.48018.2443-.67117.2919-1.13783.524-.48128.2393-.66367.2803-1.12896.5065-.4825.2344-.65622.2693-1.11974.4892l-1.41876.674c-.48613.2311-.65016.2431-1.1089.4561-.48873.227-.64383.2339-1.09879.4402-.49254.2235-.63884.226-1.08851.4254-.49868.221-.63642.2202-1.07797.4117-.51031.2213-.63984.2183-1.06725.4004-.53906.2296-.66132.2266-1.05611.394-.76875.3258-1.25208.5416-1.39594.6263 .31125,1.6817.59487,3.22.85524,4.6365 .31456,1.7114.59519,3.2452.84951,4.6397l.84419,4.6426c.31215,1.7201.58405,3.2195.84474,4.6425 .28809,1.5725.56244,3.0518.86208,4.6323 .26751,1.4111.55525,2.9028.89091,4.6137" stroke-width=".26368"/>
  <path d="m269.5 932.06c-2.1268 0.0503-4.8224 0.18959-6.875 0.4375-2.1173 0.25572-4.9717 0.73559-6.9688 1.25-2.0714 0.53358-4.5939 1.2498-6.5312 1.9375-2.0232 0.71818-4.7346 1.987-6.5312 2.9688-1.8929 1.0344-5.4427 3.8415-6.625 5.5-1.2601 1.7677-2.7162 7.1997-2.5938 9.2188 0.13259 2.1872 1.0613 5.9207 1.875 7.75 0.90341 2.031 2.2047 4.5694 3.2812 6.2188 1.2466 1.9098 2.6956 3.9353 3.875 5.4375 1.4946 1.9036 3.0372 3.7206 4.2188 5.0312 2.718 3.015 4.5938 4.6875 4.5938 4.6875s-1.6874-1.8158-4.0938-5.0938c-1.0461-1.4249-2.4203-3.3275-3.7188-5.375-1.0246-1.6158-2.1996-3.6586-3.25-5.6875-0.9071-1.7522-1.8665-4.041-2.5625-6.1562-0.62691-1.9051-1.1506-4.713-1.0625-6.9062 0.0813-2.0246 1.0348-5.1777 2.4688-6.8125 1.3454-1.5338 3.6029-3.0351 5.5938-3.875 1.8897-0.79727 3.9736-1.5509 6.0625-2.0625 2.0001-0.48981 4.1317-0.89618 6.25-1.2188 2.0422-0.31095 4.1453-0.4592 6.2812-0.5 2.0707-0.0396 4.1254 0.0538 6.25 0.21875 2.0693 0.16068 4.0338 0.50357 6.0938 1.0312 2.0142 0.51593 3.8383 1.051 5.7812 1.9062 1.9063 0.83912 3.4586 1.7312 5.1562 3 1.6707 1.2487 2.7716 2.4167 4.0625 4.0938 1.2739 1.655 1.8746 2.9615 2.625 4.9375 0.74235 1.9548 1.0137 3.4726 1.3125 5.5625 0.29627 2.0724 0.19821 3.5812 0.0937 5.6875-0.10379 2.0931-0.42302 3.7678-0.78125 5.8438-0.35679 2.0675-0.84927 3.7205-1.4062 5.75s-1.0507 3.8192-1.7188 5.8125-1.3158 3.7871-2.0625 5.75c-0.74817 1.9667-1.3194 3.1243-2.375 4.9375-1.0598 1.8204-1.5504 2.5822-2.9688 4.125-1.4271 1.5523-1.983 2.0172-3.7188 3.1876-1.7503 1.18-2.7501 1.5157-4.6562 2.375-1.9266 0.8684-3.3324 1.242-5.3125 1.9062-2.0063 0.6729-3.6754 1.0438-5.6875 1.5938-2.0442 0.5587-3.9488 0.9919-5.9688 1.5-2.0584 0.5176-4.0754 0.9997-6.0938 1.5-2.0638 0.5116-4.1102 1.0326-6.125 1.5312-1.2653 0.3132-2.5058 0.5987-3.75 0.9063v21.594c1.2852-0.4918 2.5423-0.9651 3.9375-1.4687 1.945-0.7023 3.9053-1.4024 5.9062-2.125 1.9491-0.704 3.9407-1.4349 5.9375-2.1563l5.9375-2.1562c1.9536-0.7128 4.1523-1.4535 6.125-2.2188 1.9416-0.7533 4.4515-1.6881 6.375-2.5625 1.8983-0.8629 4.7381-2.1588 6.5625-3.2187 1.805-1.0488 5.0075-3.0864 6.625-4.4375 1.6041-1.3399 4.6162-4.5002 5.875-6.1875 1.251-1.6773 3.2894-5.3026 4.1562-7.2188 0.86334-1.9084 2.0824-5.2829 2.625-7.3125s1.1331-4.4212 1.5938-6.4688 0.90385-4.5883 1.25-6.6562 0.82431-4.9729 0.96875-7.0625c0.14502-2.0981 0.29671-5.1918 0.1875-7.2812-0.10989-2.1024-0.46452-5.7218-0.96875-7.75-0.50851-2.0453-1.6898-5.6649-2.625-7.5312-0.94528-1.8865-3.3174-5.4852-4.75-7-1.4517-1.5351-4.5895-4.1787-6.375-5.25-1.8143-1.0886-5.1782-2.6403-7.1562-3.2812-2.0161-0.65322-5.1662-1.347-7.2188-1.6562-2.0992-0.31625-5.3348-0.54897-7.4062-0.5z" stroke-width=".29124"/>
  <path d="m42.838 930.3c0.54707-0.0843 2.0541-0.4617 4.3725-1.0872 1.2298-0.33182 2.8704-0.75185 4.5424-1.186 1.3285-0.34497 2.9597-0.74163 4.5454-1.1299 1.3731-0.33623 2.9978-0.70423 4.5499-1.0597 1.4-0.32066 3.0877-0.65487 4.6252-0.97043 1.4206-0.29157 3.1244-0.67597 4.6556-0.94583l4.44-0.78481c1.4447-0.25605 3.1017-0.52998 4.6209-0.7648 1.4552-0.22491 3.0346-0.48158 4.5508-0.6963l4.4567-0.63209 4.4613-0.63898c1.4688-0.21073 2.8105-0.45046 4.3105-0.69961 1.467-0.24365 2.2257-0.38488 3.685-0.814 1.4321-0.42108 1.4641-0.18018 2.7572-0.99273 1.2728-0.79982 0.66463 0.13491 1.4471-1.1872 0.77221-1.3048 0.59752-0.74554 0.80182-2.2665 0.20215-1.5048 0.28616-2.1577 0.22322-3.6861-0.0624-1.5158-5e-3 -2.2589-0.32809-3.748-0.32085-1.48-0.4921-2.1308-1.0987-3.5204-0.60419-1.384-1.0855-2.3118-1.8487-3.616s-1.4207-2.1848-2.321-3.3922-1.6329-2.1213-2.6489-3.2274-1.967-2.0998-3.0286-3.1586c-1.066-1.0631-2.0229-1.9377-3.1604-2.9094-1.1446-0.97776-2.2389-1.8798-3.4078-2.8098-1.1788-0.93793-2.2744-1.756-3.4987-2.6069-1.2376-0.86006-2.434-1.6693-3.6823-2.4804-1.265-0.82193-2.4652-1.5612-3.759-2.2921-1.3146-0.74271-2.5967-1.4428-3.9109-2.1308-1.3395-0.70123-2.6402-1.315-3.9962-1.9095-1.3868-0.608-2.7218-1.1918-4.1191-1.6722-1.4346-0.49326-2.8241-1.0082-4.2617-1.3363-1.4829-0.33846-2.958-0.66357-4.4237-0.80136-1.5203-0.14289-3.2003-0.13598-4.6082 0.30717-1.4704 0.46284-2.935 1.8614-3.7013 3.1381-0.80733 1.345-1.4026 3.0124-1.8393 4.4294-0.46548 1.5102-0.73421 3.2731-0.88523 4.7362-0.16362 1.585-0.15296 3.3741-0.06396 4.8244 0.09878 1.6102 0.3704 3.3973 0.66866 4.7915 0.34538 1.6145 0.91566 3.384 1.4088 4.6712 0.62498 1.6311 1.7031 3.481 2.4361 4.5144 1.6863 2.3771 4.7729 3.719 4.7729 3.719s-3.219-1.2286-5.1463-3.3995c-0.83782-0.94371-2.1465-2.853-2.9404-4.4008-0.62651-1.2214-1.4147-3.1072-1.9292-4.669-0.44431-1.3488-0.92757-3.3526-1.1967-4.9373-0.24242-1.4273-0.43329-3.5743-0.43915-5.1627-0.0054-1.4663 0.17339-3.7863 0.47528-5.3339 0.28324-1.452 0.99756-3.9172 1.6566-5.3386 0.62552-1.3492 3.9363-4.6447 5.348-5.2651 1.3517-0.59402 4.5994-1.0511 6.1252-1.0769 1.471-0.0249 3.5508 0.18622 5.0602 0.35818 1.4634 0.16671 3.4093 0.62698 4.8874 0.9575 1.4396 0.32193 3.2526 0.8787 4.6953 1.3281 1.4107 0.43943 3.1544 1.0482 4.5602 1.595 1.3794 0.53654 2.9167 1.1692 4.3023 1.7598 1.3636 0.58121 3.0203 1.3662 4.3652 2.0406 1.3271 0.66555 2.8049 1.4433 4.1266 2.1584 1.3076 0.70746 2.9231 1.6582 4.1949 2.4569 1.2611 0.79196 2.6885 1.7252 3.9307 2.567 1.2346 0.83654 2.8305 2.0062 4.0039 2.941s2.5334 2.072 3.6641 3.057 2.6824 2.5114 3.707 3.6075 2.3482 2.6343 3.2857 3.8066 2.3342 3.3549 3.084 4.6587c0.75281 1.309 1.9437 4.0339 2.4226 5.4643 0.48183 1.4392 1.0072 4.2212 1.2335 5.716 0.22815 1.5072 0.3685 4.4041 0.331 5.9176-0.0379 1.5297-1.0974 6.2023-1.7227 7.5816-0.63359 1.3976-4.101 5.5733-5.2783 6.5088-1.1962 0.95054-4.5444 2.7031-5.921 3.2817-1.403 0.58971-3.5103 1.285-4.9268 1.7426-1.4485 0.46785-3.3702 0.97185-4.8062 1.3471l-4.3617 1.1395c-1.4778 0.38598-2.9398 0.76512-4.3694 1.1371-1.4825 0.38576-2.8152 0.7618-4.2356 1.1514-1.4831 0.40673-2.7283 0.75613-4.1347 1.1761l-4.3225 1.2903c-1.4908 0.44482-2.6477 0.85987-4.0256 1.3146-1.4917 0.49223-2.7016 0.86609-4.0552 1.3489-1.5013 0.53542-2.7613 0.97201-4.0855 1.4694-1.5305 0.57483-2.7766 1.0309-4.054 1.5353-1.6109 0.63613-2.8476 1.1096-4.0244 1.5961-2.2915 0.94737-3.7403 1.538-4.1868 1.7044-0.42565-1.2162-0.81786-2.327-1.1812-3.3488-0.43902-1.2345-0.83592-2.339-1.1988-3.3421-0.45269-1.2512-0.85254-2.3446-1.2153-3.3359-0.45194-1.2349-0.84631-2.3113-1.2136-3.3365-0.40594-1.133-0.77883-2.2035-1.1598-3.3566-0.34017-1.0295-0.68682-2.1248-1.0692-3.3892" stroke-width=".22549"/>
  <path d="m51.574 1056.2c-1.8049-1.1262-4.0541-2.6183-5.6946-3.8767-1.6922-1.298-3.9046-3.1642-5.3616-4.6237-1.5112-1.5139-3.3177-3.4146-4.635-4.9928-1.3758-1.6481-3.0635-4.1206-4.1101-5.8803-1.1026-1.854-2.7288-6.0773-2.9021-8.1067-0.18459-2.163 1.3276-7.5796 2.4609-9.2551 1.2276-1.815 3.9278-4.5557 5.5594-5.7159 1.8116-1.2882 4.2239-2.8104 5.9902-3.682 2.0452-1.0091 4.3236-2.0147 6.1035-2.7072 2.2556-0.8775 4.5083-1.6561 6.1926-2.1827 3.8743-1.2113 6.3403-1.6958 6.3403-1.6958s-2.3768 0.7038-6.1168 2.3001c-1.6258 0.6938-3.7772 1.6318-5.9372 2.733-1.7045 0.8691-3.7558 2.0291-5.6928 3.2407-1.6728 1.0463-3.6638 2.5278-5.3397 3.994-1.5095 1.3206-3.3898 3.4707-4.4306 5.4034-0.96073 1.7839-1.7454 4.9832-1.3434 7.1204 0.37715 2.0051 1.5558 4.4465 2.8418 6.183 1.2205 1.6483 2.6305 3.3579 4.168 4.8617 1.4722 1.4398 3.0999 2.8748 4.7589 4.2308 1.5994 1.3074 3.3341 2.5057 5.1517 3.6282 1.7621 1.0883 3.5781 2.0541 5.4907 2.9937 1.8628 0.9152 3.7283 1.6202 5.7699 2.2148 1.9963 0.5814 3.8386 1.0495 5.9464 1.3026 2.068 0.2483 3.8582 0.2707 5.9653 0.043 2.0737-0.2241 3.6159-0.669 5.5808-1.4552 1.939-0.7759 3.1212-1.5946 4.7731-2.9134 1.6341-1.3044 2.6404-2.4727 3.9616-4.1194 1.31-1.6328 1.9938-2.9814 2.9762-4.8475 0.97628-1.8544 1.5541-3.4583 2.3026-5.4275 0.74549-1.9611 1.1632-3.6346 1.717-5.6649s1.0401-3.8221 1.4799-5.8779 0.79551-3.9295 1.1522-5.9991 0.45495-3.3608 0.46956-5.4588c0.01464-2.1064-0.01977-3.0118-0.45513-5.0618-0.438-2.0626-0.67977-2.7458-1.5779-4.6369-0.90571-1.9066-1.5953-2.7046-2.7985-4.4146-1.2161-1.7283-2.2359-2.7655-3.602-4.3453-1.3843-1.6006-2.632-2.7696-4.0838-4.2673-1.475-1.5216-2.8938-2.8641-4.3737-4.3298-1.5082-1.4935-2.9988-2.9353-4.4812-4.3934-1.5159-1.491-3.012-2.9813-4.4923-4.4362-0.92961-0.91376-1.852-1.791-2.7662-2.6892l10.994-18.586c0.85581 1.0776 1.6968 2.125 2.6413 3.2687l4.0017 4.8359 4.0126 4.8788c1.3215 1.6013 2.6689 3.2399 4.0127 4.8787 1.3186 1.6081 2.8339 3.365 4.1422 5.028 1.2876 1.6368 2.972 3.7193 4.1824 5.4511 1.1946 1.7092 2.979 4.2703 4.0097 6.1114 1.0196 1.8216 2.7386 5.2058 3.443 7.1922 0.69853 1.9699 1.6821 6.2235 1.9065 8.3166 0.22284 2.0806 0.13163 6.2386-0.0979 8.3292-0.2285 2.0821-0.89733 5.6073-1.4635 7.6303s-1.2756 4.3823-1.9216 6.3791-1.558 4.4093-2.3128 6.3654c-0.75646 1.9603-1.8223 4.7-2.7618 6.5719-0.94334 1.8797-2.3878 4.6197-3.5456 6.3625-1.1649 1.7536-3.3128 4.6883-4.7794 6.1773-1.479 1.5015-4.3385 4.0155-6.0935 5.1457-1.774 1.1424-5.6479 3.0322-7.6521 3.6066-2.031 0.5822-6.0776 1.2601-8.1598 1.2732-2.1159 0.013-5.8011-0.3637-7.8299-0.8191-2.0678-0.4642-5.1323-1.4708-7.0564-2.2496-1.9677-0.7965-4.8711-2.2435-6.6291-3.3402z" stroke-width=".29124"/>
 </g>
</svg>
