<?xml version="1.0" encoding="UTF-8"?>
<!DOCTYPE svg  PUBLIC '-//W3C//DTD SVG 1.1//EN'  'http://www.w3.org/Graphics/SVG/1.1/DTD/svg11.dtd'>
<svg enable-background="new 0 0 2599.9761 1600" image-rendering="optimizeQuality" shape-rendering="geometricPrecision" text-rendering="geometricPrecision" version="1.1" viewBox="0 0 2599.9761 1600" xml:space="preserve" xmlns="http://www.w3.org/2000/svg">
<pattern id="a" y="1600" width="100" height="100" overflow="visible" patternUnits="userSpaceOnUse" viewBox="50 -150 100 100">
		<polygon points="50 -150 150 -150 150 -50 50 -50" fill="none"/>
			<path d="m100-50c27.586 0 50 22.414 50 50 0-27.586 22.605-50 50-50-27.395 0-50-22.414-50-50 0 27.586-22.414 50-50 50z"/>
			<path d="m0-50c27.586 0 50 22.414 50 50 0-27.586 22.605-50 50-50-27.395 0-50-22.414-50-50 0 27.586-22.414 50-50 50z"/>
			<path d="m50-100c27.586 0 50 22.414 50 50 0-27.586 22.605-50 50-50-27.395 0-50-22.414-50-50 0 27.586-22.414 50-50 50z"/>
			<path d="m100-150c27.586 0 50 22.414 50 50 0-27.586 22.605-50 50-50-27.395 0-50-22.414-50-50 0 27.586-22.414 50-50 50z"/>
			<path d="m0-150c27.586 0 50 22.414 50 50 0-27.586 22.605-50 50-50-27.395 0-50-22.414-50-50 0 27.586-22.414 50-50 50z"/>
</pattern>
<rect width="2600" height="1600" fill="url(#a)"/>
</svg>
