<?xml version="1.0" encoding="UTF-8"?>
<svg viewBox="0 0 398.79 348.41" xmlns="http://www.w3.org/2000/svg">
 <path d="m111.11 228.99v9.6318h19.26l0.0879-9.7218 10.801-0.0903v-17.549l-10.889-0.0903v-41.04h10.709v-17.549h-10.621l-0.0879-11.88-9.6315-9.5403-9.7185 9.7182v11.79h-23.221v-12.058l-9.6306-9.6318-9.6291 9.6318v12.058h-23.04v-12.239l-9.45-9.4512-9.9 9.9v11.79h-10.71v17.461h10.71v41.04l-12.331 0.0903v17.549h12.331v9.8121h19.26l0.0903-9.7218h23.129v9.7218h19.261v-9.6318h23.221zm-65.701-58.769h23.22v41.131h-23.22v-41.131zm42.3 0h23.221v41.131h-23.221v-41.131" fill="#231f20"/>
 <path d="m111.11 228.99v9.6318h19.26l0.0879-9.7218 10.801-0.0903v-17.549l-10.889-0.0903v-41.04h10.709v-17.549h-10.621l-0.0879-11.88-9.6315-9.5403-9.7185 9.7182v11.79h-23.221v-12.058l-9.6306-9.6318-9.6291 9.6318v12.058h-23.04v-12.239l-9.45-9.4512-9.9 9.9v11.79h-10.71v17.461h10.71v41.04l-12.331 0.0903v17.549h12.331v9.8121h19.26l0.0903-9.7218h23.129v9.7218h19.261v-9.6318h23.221zm-65.701-58.769h23.22v41.131h-23.22v-41.131zm42.3 0h23.221v41.131h-23.221v-41.131z" fill="none" stroke="#231f20" stroke-linejoin="round" stroke-miterlimit="2.613" stroke-width="2.4"/>
 <path d="m237.78 228.78v9.6318h19.26l0.0879-9.7218 10.801-0.0903v-17.549l-10.889-0.0903v-41.04h10.709v-17.549h-10.621l-0.0879-11.88-9.6315-9.5403-9.7185 9.7182v11.79h-23.221v-12.058l-9.6306-9.6318-9.6291 9.6318v12.058h-23.04v-12.239l-9.45-9.4512-9.9 9.9v11.79h-10.71v17.461h10.71v41.04l-12.331 0.0903v17.549h12.331v9.8121h19.26l0.0903-9.7218h23.129v9.7218h19.261v-9.6318h23.221zm-65.701-58.769h23.22v41.131h-23.22v-41.131zm42.3 0h23.221v41.131h-23.221v-41.131" fill="#231f20"/>
 <path d="m237.78 228.78v9.6318h19.26l0.0879-9.7218 10.801-0.0903v-17.549l-10.889-0.0903v-41.04h10.709v-17.549h-10.621l-0.0879-11.88-9.6315-9.5403-9.7185 9.7182v11.79h-23.221v-12.058l-9.6306-9.6318-9.6291 9.6318v12.058h-23.04v-12.239l-9.45-9.4512-9.9 9.9v11.79h-10.71v17.461h10.71v41.04l-12.331 0.0903v17.549h12.331v9.8121h19.26l0.0903-9.7218h23.129v9.7218h19.261v-9.6318h23.221zm-65.701-58.769h23.22v41.131h-23.22v-41.131zm42.3 0h23.221v41.131h-23.221v-41.131z" fill="none" stroke="#231f20" stroke-linejoin="round" stroke-miterlimit="2.613" stroke-width="2.4"/>
 <path d="m364.78 228.78v9.6318h19.26l0.0879-9.7218 10.801-0.0903v-17.549l-10.889-0.0903v-41.04h10.709v-17.549h-10.621l-0.0879-11.88-9.6315-9.5403-9.7185 9.7182v11.79h-23.221v-12.058l-9.6306-9.6318-9.6291 9.6318v12.058h-23.04v-12.239l-9.45-9.4512-9.9 9.9v11.79h-10.71v17.461h10.71v41.04l-12.331 0.0903v17.549h12.331v9.8121h19.26l0.0903-9.7218h23.129v9.7218h19.261v-9.6318h23.221zm-65.701-58.769h23.22v41.131h-23.22v-41.131zm42.3 0h23.221v41.131h-23.221v-41.131" fill="#231f20"/>
 <path d="m364.78 228.78v9.6318h19.26l0.0879-9.7218 10.801-0.0903v-17.549l-10.889-0.0903v-41.04h10.709v-17.549h-10.621l-0.0879-11.88-9.6315-9.5403-9.7185 9.7182v11.79h-23.221v-12.058l-9.6306-9.6318-9.6291 9.6318v12.058h-23.04v-12.239l-9.45-9.4512-9.9 9.9v11.79h-10.71v17.461h10.71v41.04l-12.331 0.0903v17.549h12.331v9.8121h19.26l0.0903-9.7218h23.129v9.7218h19.261v-9.6318h23.221zm-65.701-58.769h23.22v41.131h-23.22v-41.131zm42.3 0h23.221v41.131h-23.221v-41.131z" fill="none" stroke="#231f20" stroke-linejoin="round" stroke-miterlimit="2.613" stroke-width="2.4"/>
</svg>
